<mxfile host="app.diagrams.net" modified="2024-01-11T13:02:26.824Z" agent="Mozilla/5.0 (Windows NT 10.0; Win64; x64) AppleWebKit/537.36 (KHTML, like Gecko) Chrome/120.0.0.0 Safari/537.36" etag="IXbfJ-6zI1wkc4C-oFek" version="22.1.18" type="device">
  <diagram name="ERD" id="LPL2_Tp4ezcBS8mGwgSR">
    <mxGraphModel dx="607" dy="327" grid="0" gridSize="10" guides="1" tooltips="1" connect="1" arrows="1" fold="1" page="1" pageScale="1" pageWidth="827" pageHeight="1169" math="0" shadow="0">
      <root>
        <mxCell id="0" />
        <mxCell id="1" parent="0" />
        <mxCell id="7AKD0sVczo90Le31K_5j-1" value="UAS - ERD - RUMAH SAKIT" style="text;html=1;strokeColor=none;fillColor=none;align=center;verticalAlign=middle;whiteSpace=wrap;rounded=0;fontSize=40;" parent="1" vertex="1">
          <mxGeometry x="140" y="5" width="536" height="58" as="geometry" />
        </mxCell>
        <mxCell id="7AKD0sVczo90Le31K_5j-2" value="" style="rounded=0;whiteSpace=wrap;html=1;" parent="1" vertex="1">
          <mxGeometry x="92" y="108" width="156" height="76" as="geometry" />
        </mxCell>
        <mxCell id="7AKD0sVczo90Le31K_5j-3" value="Pasien" style="text;html=1;strokeColor=none;fillColor=none;align=center;verticalAlign=middle;whiteSpace=wrap;rounded=0;" parent="1" vertex="1">
          <mxGeometry x="107" y="129" width="126" height="34" as="geometry" />
        </mxCell>
        <mxCell id="7AKD0sVczo90Le31K_5j-28" value="" style="rounded=0;whiteSpace=wrap;html=1;" parent="1" vertex="1">
          <mxGeometry x="588" y="437" width="156" height="76" as="geometry" />
        </mxCell>
        <mxCell id="7AKD0sVczo90Le31K_5j-29" value="Perawat" style="text;html=1;strokeColor=none;fillColor=none;align=center;verticalAlign=middle;whiteSpace=wrap;rounded=0;" parent="1" vertex="1">
          <mxGeometry x="603" y="458" width="126" height="34" as="geometry" />
        </mxCell>
        <mxCell id="7AKD0sVczo90Le31K_5j-60" value="" style="rhombus;whiteSpace=wrap;html=1;" parent="1" vertex="1">
          <mxGeometry x="397.5" y="428" width="119" height="88" as="geometry" />
        </mxCell>
        <mxCell id="7AKD0sVczo90Le31K_5j-61" value="Melakukan" style="text;html=1;strokeColor=none;fillColor=none;align=center;verticalAlign=middle;whiteSpace=wrap;rounded=0;" parent="1" vertex="1">
          <mxGeometry x="394" y="455" width="126" height="34" as="geometry" />
        </mxCell>
        <mxCell id="7AKD0sVczo90Le31K_5j-72" value="" style="endArrow=none;html=1;rounded=0;" parent="1" edge="1">
          <mxGeometry width="50" height="50" relative="1" as="geometry">
            <mxPoint x="248" y="149" as="sourcePoint" />
            <mxPoint x="348" y="149" as="targetPoint" />
          </mxGeometry>
        </mxCell>
        <mxCell id="2snOvnFH9wtifVxKCRkk-30" value="1" style="edgeLabel;html=1;align=center;verticalAlign=middle;resizable=0;points=[];" vertex="1" connectable="0" parent="7AKD0sVczo90Le31K_5j-72">
          <mxGeometry x="-0.0039" y="3" relative="1" as="geometry">
            <mxPoint as="offset" />
          </mxGeometry>
        </mxCell>
        <mxCell id="7AKD0sVczo90Le31K_5j-73" value="" style="rhombus;whiteSpace=wrap;html=1;" parent="1" vertex="1">
          <mxGeometry x="348.5" y="105" width="119" height="88" as="geometry" />
        </mxCell>
        <mxCell id="7AKD0sVczo90Le31K_5j-74" value="Melakukan" style="text;html=1;strokeColor=none;fillColor=none;align=center;verticalAlign=middle;whiteSpace=wrap;rounded=0;" parent="1" vertex="1">
          <mxGeometry x="345" y="132" width="126" height="34" as="geometry" />
        </mxCell>
        <mxCell id="7AKD0sVczo90Le31K_5j-77" value="" style="endArrow=none;html=1;rounded=0;" parent="1" edge="1">
          <mxGeometry width="50" height="50" relative="1" as="geometry">
            <mxPoint x="467.5" y="149" as="sourcePoint" />
            <mxPoint x="580" y="146" as="targetPoint" />
          </mxGeometry>
        </mxCell>
        <mxCell id="2snOvnFH9wtifVxKCRkk-33" value="M" style="edgeLabel;html=1;align=center;verticalAlign=middle;resizable=0;points=[];" vertex="1" connectable="0" parent="7AKD0sVczo90Le31K_5j-77">
          <mxGeometry x="-0.0307" y="-2" relative="1" as="geometry">
            <mxPoint as="offset" />
          </mxGeometry>
        </mxCell>
        <mxCell id="7AKD0sVczo90Le31K_5j-78" value="" style="rounded=0;whiteSpace=wrap;html=1;" parent="1" vertex="1">
          <mxGeometry x="578" y="111" width="156" height="76" as="geometry" />
        </mxCell>
        <mxCell id="7AKD0sVczo90Le31K_5j-79" value="Pemeriksaan Medis" style="text;html=1;strokeColor=none;fillColor=none;align=center;verticalAlign=middle;whiteSpace=wrap;rounded=0;" parent="1" vertex="1">
          <mxGeometry x="593" y="132" width="126" height="34" as="geometry" />
        </mxCell>
        <mxCell id="7AKD0sVczo90Le31K_5j-82" value="" style="endArrow=none;html=1;rounded=0;" parent="1" edge="1">
          <mxGeometry width="50" height="50" relative="1" as="geometry">
            <mxPoint x="170" y="268" as="sourcePoint" />
            <mxPoint x="170" y="184" as="targetPoint" />
          </mxGeometry>
        </mxCell>
        <mxCell id="2snOvnFH9wtifVxKCRkk-44" value="1" style="edgeLabel;html=1;align=center;verticalAlign=middle;resizable=0;points=[];" vertex="1" connectable="0" parent="7AKD0sVczo90Le31K_5j-82">
          <mxGeometry x="-0.0727" y="-1" relative="1" as="geometry">
            <mxPoint as="offset" />
          </mxGeometry>
        </mxCell>
        <mxCell id="7AKD0sVczo90Le31K_5j-83" value="" style="rhombus;whiteSpace=wrap;html=1;" parent="1" vertex="1">
          <mxGeometry x="110.5" y="267" width="119" height="88" as="geometry" />
        </mxCell>
        <mxCell id="7AKD0sVczo90Le31K_5j-84" value="Diperiksa" style="text;html=1;strokeColor=none;fillColor=none;align=center;verticalAlign=middle;whiteSpace=wrap;rounded=0;" parent="1" vertex="1">
          <mxGeometry x="107" y="294" width="126" height="34" as="geometry" />
        </mxCell>
        <mxCell id="7AKD0sVczo90Le31K_5j-85" value="" style="rounded=0;whiteSpace=wrap;html=1;" parent="1" vertex="1">
          <mxGeometry x="92" y="434" width="156" height="76" as="geometry" />
        </mxCell>
        <mxCell id="7AKD0sVczo90Le31K_5j-86" value="Dokter" style="text;html=1;strokeColor=none;fillColor=none;align=center;verticalAlign=middle;whiteSpace=wrap;rounded=0;" parent="1" vertex="1">
          <mxGeometry x="107" y="455" width="126" height="34" as="geometry" />
        </mxCell>
        <mxCell id="7AKD0sVczo90Le31K_5j-87" value="" style="endArrow=none;html=1;rounded=0;" parent="1" edge="1">
          <mxGeometry width="50" height="50" relative="1" as="geometry">
            <mxPoint x="171" y="433" as="sourcePoint" />
            <mxPoint x="171" y="351" as="targetPoint" />
          </mxGeometry>
        </mxCell>
        <mxCell id="2snOvnFH9wtifVxKCRkk-45" value="M" style="edgeLabel;html=1;align=center;verticalAlign=middle;resizable=0;points=[];" vertex="1" connectable="0" parent="7AKD0sVczo90Le31K_5j-87">
          <mxGeometry x="-0.0326" relative="1" as="geometry">
            <mxPoint as="offset" />
          </mxGeometry>
        </mxCell>
        <mxCell id="7AKD0sVczo90Le31K_5j-106" value="Database Design" style="text;html=1;strokeColor=none;fillColor=none;align=center;verticalAlign=middle;whiteSpace=wrap;rounded=0;fontSize=20;" parent="1" vertex="1">
          <mxGeometry y="1115" width="218" height="44" as="geometry" />
        </mxCell>
        <mxCell id="7AKD0sVczo90Le31K_5j-107" value="Atthariq Haykal Putera&amp;nbsp;" style="text;html=1;strokeColor=none;fillColor=none;align=center;verticalAlign=middle;whiteSpace=wrap;rounded=0;fontSize=20;" parent="1" vertex="1">
          <mxGeometry x="555" y="1115" width="272" height="44" as="geometry" />
        </mxCell>
        <mxCell id="2snOvnFH9wtifVxKCRkk-46" value="" style="endArrow=none;html=1;rounded=0;" edge="1" parent="1">
          <mxGeometry width="50" height="50" relative="1" as="geometry">
            <mxPoint x="663" y="270.5" as="sourcePoint" />
            <mxPoint x="663" y="186.5" as="targetPoint" />
          </mxGeometry>
        </mxCell>
        <mxCell id="2snOvnFH9wtifVxKCRkk-47" value="M" style="edgeLabel;html=1;align=center;verticalAlign=middle;resizable=0;points=[];" vertex="1" connectable="0" parent="2snOvnFH9wtifVxKCRkk-46">
          <mxGeometry x="-0.0727" y="-1" relative="1" as="geometry">
            <mxPoint as="offset" />
          </mxGeometry>
        </mxCell>
        <mxCell id="2snOvnFH9wtifVxKCRkk-48" value="" style="rhombus;whiteSpace=wrap;html=1;" vertex="1" parent="1">
          <mxGeometry x="603.5" y="269.5" width="119" height="88" as="geometry" />
        </mxCell>
        <mxCell id="2snOvnFH9wtifVxKCRkk-49" value="Membantu" style="text;html=1;strokeColor=none;fillColor=none;align=center;verticalAlign=middle;whiteSpace=wrap;rounded=0;" vertex="1" parent="1">
          <mxGeometry x="600" y="296.5" width="126" height="34" as="geometry" />
        </mxCell>
        <mxCell id="2snOvnFH9wtifVxKCRkk-50" value="1" style="endArrow=none;html=1;rounded=0;" edge="1" parent="1">
          <mxGeometry width="50" height="50" relative="1" as="geometry">
            <mxPoint x="664" y="435.5" as="sourcePoint" />
            <mxPoint x="664" y="353.5" as="targetPoint" />
          </mxGeometry>
        </mxCell>
        <mxCell id="2snOvnFH9wtifVxKCRkk-51" value="1" style="edgeLabel;html=1;align=center;verticalAlign=middle;resizable=0;points=[];" vertex="1" connectable="0" parent="2snOvnFH9wtifVxKCRkk-50">
          <mxGeometry x="-0.0326" relative="1" as="geometry">
            <mxPoint as="offset" />
          </mxGeometry>
        </mxCell>
        <mxCell id="2snOvnFH9wtifVxKCRkk-52" value="" style="endArrow=none;html=1;rounded=0;" edge="1" parent="1">
          <mxGeometry width="50" height="50" relative="1" as="geometry">
            <mxPoint x="248" y="473" as="sourcePoint" />
            <mxPoint x="398" y="473" as="targetPoint" />
          </mxGeometry>
        </mxCell>
        <mxCell id="2snOvnFH9wtifVxKCRkk-69" value="1" style="edgeLabel;html=1;align=center;verticalAlign=middle;resizable=0;points=[];" vertex="1" connectable="0" parent="2snOvnFH9wtifVxKCRkk-52">
          <mxGeometry x="0.0154" y="-1" relative="1" as="geometry">
            <mxPoint as="offset" />
          </mxGeometry>
        </mxCell>
        <mxCell id="2snOvnFH9wtifVxKCRkk-53" value="" style="endArrow=none;html=1;rounded=0;" edge="1" parent="1">
          <mxGeometry width="50" height="50" relative="1" as="geometry">
            <mxPoint x="456" y="428" as="sourcePoint" />
            <mxPoint x="456" y="252" as="targetPoint" />
          </mxGeometry>
        </mxCell>
        <mxCell id="2snOvnFH9wtifVxKCRkk-54" value="" style="endArrow=none;html=1;rounded=0;" edge="1" parent="1">
          <mxGeometry width="50" height="50" relative="1" as="geometry">
            <mxPoint x="457" y="254" as="sourcePoint" />
            <mxPoint x="599" y="254" as="targetPoint" />
          </mxGeometry>
        </mxCell>
        <mxCell id="2snOvnFH9wtifVxKCRkk-55" value="" style="endArrow=none;html=1;rounded=0;entryX=0.146;entryY=0.983;entryDx=0;entryDy=0;entryPerimeter=0;" edge="1" parent="1" target="7AKD0sVczo90Le31K_5j-78">
          <mxGeometry width="50" height="50" relative="1" as="geometry">
            <mxPoint x="600" y="255" as="sourcePoint" />
            <mxPoint x="650" y="205" as="targetPoint" />
          </mxGeometry>
        </mxCell>
        <mxCell id="2snOvnFH9wtifVxKCRkk-57" value="M" style="edgeLabel;html=1;align=center;verticalAlign=middle;resizable=0;points=[];" vertex="1" connectable="0" parent="2snOvnFH9wtifVxKCRkk-55">
          <mxGeometry x="0.0335" y="1" relative="1" as="geometry">
            <mxPoint as="offset" />
          </mxGeometry>
        </mxCell>
        <mxCell id="2snOvnFH9wtifVxKCRkk-60" value="" style="endArrow=none;html=1;rounded=0;" edge="1" parent="1">
          <mxGeometry width="50" height="50" relative="1" as="geometry">
            <mxPoint x="174" y="592" as="sourcePoint" />
            <mxPoint x="174" y="508" as="targetPoint" />
          </mxGeometry>
        </mxCell>
        <mxCell id="2snOvnFH9wtifVxKCRkk-66" value="1" style="edgeLabel;html=1;align=center;verticalAlign=middle;resizable=0;points=[];" vertex="1" connectable="0" parent="2snOvnFH9wtifVxKCRkk-60">
          <mxGeometry x="-0.0795" relative="1" as="geometry">
            <mxPoint as="offset" />
          </mxGeometry>
        </mxCell>
        <mxCell id="2snOvnFH9wtifVxKCRkk-61" value="" style="rhombus;whiteSpace=wrap;html=1;" vertex="1" parent="1">
          <mxGeometry x="114.5" y="591" width="119" height="88" as="geometry" />
        </mxCell>
        <mxCell id="2snOvnFH9wtifVxKCRkk-62" value="Menempati" style="text;html=1;strokeColor=none;fillColor=none;align=center;verticalAlign=middle;whiteSpace=wrap;rounded=0;" vertex="1" parent="1">
          <mxGeometry x="111" y="618" width="126" height="34" as="geometry" />
        </mxCell>
        <mxCell id="2snOvnFH9wtifVxKCRkk-63" value="" style="rounded=0;whiteSpace=wrap;html=1;" vertex="1" parent="1">
          <mxGeometry x="96" y="758" width="156" height="76" as="geometry" />
        </mxCell>
        <mxCell id="2snOvnFH9wtifVxKCRkk-64" value="Ruangan" style="text;html=1;strokeColor=none;fillColor=none;align=center;verticalAlign=middle;whiteSpace=wrap;rounded=0;" vertex="1" parent="1">
          <mxGeometry x="111" y="779" width="126" height="34" as="geometry" />
        </mxCell>
        <mxCell id="2snOvnFH9wtifVxKCRkk-65" value="" style="endArrow=none;html=1;rounded=0;" edge="1" parent="1">
          <mxGeometry width="50" height="50" relative="1" as="geometry">
            <mxPoint x="175" y="757" as="sourcePoint" />
            <mxPoint x="175" y="675" as="targetPoint" />
          </mxGeometry>
        </mxCell>
        <mxCell id="2snOvnFH9wtifVxKCRkk-68" value="1" style="edgeLabel;html=1;align=center;verticalAlign=middle;resizable=0;points=[];" vertex="1" connectable="0" parent="2snOvnFH9wtifVxKCRkk-65">
          <mxGeometry x="-0.0048" y="-1" relative="1" as="geometry">
            <mxPoint y="1" as="offset" />
          </mxGeometry>
        </mxCell>
      </root>
    </mxGraphModel>
  </diagram>
</mxfile>
